<?xml version="1.0" encoding="iso-8859-1"?>
<!-- Generator: Adobe Illustrator 19.0.0, SVG Export Plug-In . SVG Version: 6.00 Build 0)  -->
<svg version="1.1" id="Layer_1" xmlns="http://www.w3.org/2000/svg" xmlns:xlink="http://www.w3.org/1999/xlink" x="0px" y="0px"
	 viewBox="-287 381 35.93 32" style="enable-background:new -287 381 35.93 32;" xml:space="preserve">
<path style="fill:#17568B;" d="M-268.86,393.75c-1.77,0-3.2,1.44-3.2,3.21c0,1.77,1.43,3.21,3.2,3.21c1.78,0,3.21-1.44,3.21-3.21
	C-265.65,395.19-267.08,393.75-268.86,393.75z M-268.86,393.75c-1.77,0-3.2,1.44-3.2,3.21c0,1.77,1.43,3.21,3.2,3.21
	c1.78,0,3.21-1.44,3.21-3.21C-265.65,395.19-267.08,393.75-268.86,393.75z M-268.86,393.75c-1.77,0-3.2,1.44-3.2,3.21
	c0,1.77,1.43,3.21,3.2,3.21c1.78,0,3.21-1.44,3.21-3.21C-265.65,395.19-267.08,393.75-268.86,393.75z M-268.86,393.75
	c-1.77,0-3.2,1.44-3.2,3.21c0,1.77,1.43,3.21,3.2,3.21c1.78,0,3.21-1.44,3.21-3.21C-265.65,395.19-267.08,393.75-268.86,393.75z
	 M-268.86,393.75c-1.77,0-3.2,1.44-3.2,3.21c0,1.77,1.43,3.21,3.2,3.21c1.78,0,3.21-1.44,3.21-3.21
	C-265.65,395.19-267.08,393.75-268.86,393.75z M-268.86,393.75c-1.77,0-3.2,1.44-3.2,3.21c0,1.77,1.43,3.21,3.2,3.21
	c1.78,0,3.21-1.44,3.21-3.21C-265.65,395.19-267.08,393.75-268.86,393.75z M-268.86,393.75c-1.77,0-3.2,1.44-3.2,3.21
	c0,1.77,1.43,3.21,3.2,3.21c1.78,0,3.21-1.44,3.21-3.21C-265.65,395.19-267.08,393.75-268.86,393.75z M-268.86,393.75
	c-1.77,0-3.2,1.44-3.2,3.21c0,1.77,1.43,3.21,3.2,3.21c1.78,0,3.21-1.44,3.21-3.21C-265.65,395.19-267.08,393.75-268.86,393.75z
	 M-268.86,393.75c-1.77,0-3.2,1.44-3.2,3.21c0,1.77,1.43,3.21,3.2,3.21c1.78,0,3.21-1.44,3.21-3.21
	C-265.65,395.19-267.08,393.75-268.86,393.75z M-268.86,393.75c-1.77,0-3.2,1.44-3.2,3.21c0,1.77,1.43,3.21,3.2,3.21
	c1.78,0,3.21-1.44,3.21-3.21C-265.65,395.19-267.08,393.75-268.86,393.75z M-268.86,393.75c-1.77,0-3.2,1.44-3.2,3.21
	c0,1.77,1.43,3.21,3.2,3.21c1.78,0,3.21-1.44,3.21-3.21C-265.65,395.19-267.08,393.75-268.86,393.75z M-268.86,393.75
	c-1.77,0-3.2,1.44-3.2,3.21c0,1.77,1.43,3.21,3.2,3.21c1.78,0,3.21-1.44,3.21-3.21C-265.65,395.19-267.08,393.75-268.86,393.75z
	 M-257.28,391.37c-0.38-0.13-0.77-0.25-1.16-0.36c0.07-0.27,0.13-0.53,0.18-0.79c0.88-4.25,0.31-7.68-1.65-8.8
	c-1.87-1.08-4.94,0.04-8.03,2.74c-0.31,0.26-0.61,0.54-0.9,0.82c-0.19-0.19-0.39-0.37-0.59-0.55c-3.25-2.88-6.5-4.1-8.45-2.97
	c-1.88,1.09-2.43,4.31-1.64,8.33c0.08,0.4,0.16,0.8,0.26,1.19c-0.46,0.13-0.9,0.27-1.33,0.42c-3.8,1.33-6.23,3.41-6.23,5.56
	c0,2.23,2.61,4.46,6.57,5.82c0.32,0.11,0.64,0.21,0.97,0.3c-0.11,0.43-0.2,0.85-0.28,1.28c-0.75,3.96-0.17,7.1,1.7,8.18
	c1.93,1.11,5.17-0.03,8.32-2.79c0.26-0.22,0.51-0.45,0.75-0.69c0.32,0.31,0.64,0.6,0.97,0.89c3.06,2.63,6.07,3.69,7.94,2.61
	c1.92-1.12,2.55-4.49,1.74-8.6c-0.07-0.32-0.14-0.64-0.22-0.96c0.23-0.07,0.45-0.14,0.67-0.21c4.12-1.36,6.8-3.57,6.8-5.83
	C-250.89,394.8-253.4,392.71-257.28,391.37z M-266.94,385.31c2.66-2.3,5.13-3.22,6.26-2.56c1.21,0.69,1.68,3.49,0.92,7.16
	c-0.05,0.23-0.1,0.47-0.16,0.71c-1.49-0.34-3.11-0.6-4.81-0.76c-0.98-1.4-2.01-2.68-3.03-3.79
	C-267.49,385.81-267.22,385.56-266.94,385.31z M-275.2,393.34c-0.35,0.61-0.69,1.23-1.01,1.85c-0.45-1.06-0.83-2.1-1.15-3.1
	c1.03-0.23,2.12-0.42,3.26-0.56C-274.48,392.12-274.85,392.72-275.2,393.34z M-275.19,400.66c0.36,0.63,0.74,1.25,1.12,1.85
	c-1.17-0.13-2.28-0.31-3.31-0.53c0.32-1.03,0.71-2.09,1.17-3.18C-275.89,399.43-275.55,400.05-275.19,400.66z M-275.4,397
	c0.01-0.02,0.02-0.03,0.02-0.05c0-0.01,0-0.03,0.01-0.04c0.46-0.97,0.96-1.88,1.5-2.81c0.53-0.91,1.1-1.82,1.69-2.69
	c0.01-0.03,0.03-0.05,0.05-0.08h0.08c0-0.01,0.01,0,0.01,0c1.04-0.08,2.11-0.12,3.18-0.12c1.11,0,2.2,0.04,3.26,0.12
	c0.01,0,0.01,0,0.02,0c0,0.01,0.01,0.01,0.01,0.02c0.61,0.89,1.18,1.81,1.72,2.74c0.55,0.95,1.07,1.91,1.55,2.89
	c-0.48,0.98-0.99,1.95-1.54,2.91c-0.55,0.94-1.12,1.87-1.73,2.78c-1.09,0.07-2.19,0.11-3.29,0.11c-1.11,0-2.2-0.03-3.25-0.1
	c-0.62-0.91-1.21-1.84-1.76-2.79h0.01c-0.54-0.93-1.05-1.88-1.52-2.85v-0.01C-275.39,397.02-275.4,397.01-275.4,397z
	 M-262.51,400.65c0.36-0.62,0.71-1.26,1.04-1.9c0.48,1.09,0.88,2.15,1.21,3.16c-1.05,0.24-2.17,0.43-3.36,0.57
	C-263.24,401.88-262.87,401.27-262.51,400.65z M-261.48,395.2c-0.34-0.63-0.68-1.26-1.04-1.87c-0.35-0.61-0.71-1.21-1.09-1.8
	c1.15,0.14,2.24,0.34,3.28,0.57C-260.64,393.09-261.03,394.13-261.48,395.2z M-268.84,387.17c0.71,0.77,1.42,1.62,2.12,2.55
	c-1.42-0.06-2.84-0.07-4.25,0C-270.27,388.8-269.56,387.95-268.84,387.17z M-277.12,382.79c1.21-0.69,3.86,0.3,6.67,2.79
	c0.18,0.16,0.36,0.32,0.54,0.49c-1.05,1.12-2.08,2.4-3.07,3.79c-1.69,0.16-3.3,0.41-4.79,0.75c-0.09-0.37-0.17-0.74-0.25-1.11
	C-278.69,386.05-278.24,383.44-277.12,382.79z M-278.87,401.6c-0.3-0.08-0.59-0.18-0.88-0.28c-1.76-0.59-3.2-1.37-4.19-2.22
	c-0.9-0.77-1.35-1.52-1.35-2.14c0-1.31,1.95-2.97,5.21-4.11c0.39-0.14,0.81-0.27,1.23-0.39c0.45,1.46,1.04,2.99,1.76,4.54
	C-277.82,398.57-278.41,400.12-278.87,401.6z M-270.55,408.6c-1.39,1.22-2.79,2.08-4.02,2.52c-1.11,0.39-1.99,0.4-2.52,0.09
	c-1.13-0.65-1.61-3.18-0.96-6.56c0.07-0.4,0.16-0.8,0.26-1.19c1.47,0.32,3.1,0.56,4.84,0.7c1,1.4,2.04,2.68,3.09,3.81
	C-270.09,408.18-270.32,408.39-270.55,408.6z M-268.8,406.86c-0.72-0.78-1.45-1.65-2.16-2.58c0.69,0.02,1.39,0.04,2.1,0.04
	c0.74,0,1.46-0.02,2.17-0.05C-267.39,405.22-268.09,406.09-268.8,406.86z M-259.48,409c-0.21,1.15-0.64,1.92-1.17,2.23
	c-1.13,0.66-3.56-0.2-6.17-2.44c-0.31-0.27-0.61-0.54-0.9-0.83c1.01-1.11,2.02-2.39,3.01-3.82c1.74-0.16,3.38-0.41,4.87-0.75
	c0.07,0.29,0.13,0.58,0.19,0.87C-259.29,406.07-259.24,407.72-259.48,409z M-258.17,401.33c-0.2,0.07-0.4,0.13-0.61,0.19
	c-0.45-1.44-1.06-2.97-1.82-4.55c0.72-1.54,1.31-3.06,1.75-4.49c0.37,0.11,0.73,0.22,1.07,0.34c3.33,1.15,5.35,2.84,5.35,4.14
	C-252.43,398.35-254.62,400.15-258.17,401.33z M-268.86,400.17c1.78,0,3.21-1.44,3.21-3.21c0-1.77-1.43-3.21-3.21-3.21
	c-1.77,0-3.2,1.44-3.2,3.21C-272.06,398.73-270.63,400.17-268.86,400.17z M-268.86,393.75c-1.77,0-3.2,1.44-3.2,3.21
	c0,1.77,1.43,3.21,3.2,3.21c1.78,0,3.21-1.44,3.21-3.21C-265.65,395.19-267.08,393.75-268.86,393.75z M-268.86,393.75
	c-1.77,0-3.2,1.44-3.2,3.21c0,1.77,1.43,3.21,3.2,3.21c1.78,0,3.21-1.44,3.21-3.21C-265.65,395.19-267.08,393.75-268.86,393.75z
	 M-268.86,393.75c-1.77,0-3.2,1.44-3.2,3.21c0,1.77,1.43,3.21,3.2,3.21c1.78,0,3.21-1.44,3.21-3.21
	C-265.65,395.19-267.08,393.75-268.86,393.75z M-268.86,393.75c-1.77,0-3.2,1.44-3.2,3.21c0,1.77,1.43,3.21,3.2,3.21
	c1.78,0,3.21-1.44,3.21-3.21C-265.65,395.19-267.08,393.75-268.86,393.75z M-268.86,393.75c-1.77,0-3.2,1.44-3.2,3.21
	c0,1.77,1.43,3.21,3.2,3.21c1.78,0,3.21-1.44,3.21-3.21C-265.65,395.19-267.08,393.75-268.86,393.75z M-268.86,393.75
	c-1.77,0-3.2,1.44-3.2,3.21c0,1.77,1.43,3.21,3.2,3.21c1.78,0,3.21-1.44,3.21-3.21C-265.65,395.19-267.08,393.75-268.86,393.75z
	 M-268.86,393.75c-1.77,0-3.2,1.44-3.2,3.21c0,1.77,1.43,3.21,3.2,3.21c1.78,0,3.21-1.44,3.21-3.21
	C-265.65,395.19-267.08,393.75-268.86,393.75z M-268.86,393.75c-1.77,0-3.2,1.44-3.2,3.21c0,1.77,1.43,3.21,3.2,3.21
	c1.78,0,3.21-1.44,3.21-3.21C-265.65,395.19-267.08,393.75-268.86,393.75z M-268.86,393.75c-1.77,0-3.2,1.44-3.2,3.21
	c0,1.77,1.43,3.21,3.2,3.21c1.78,0,3.21-1.44,3.21-3.21C-265.65,395.19-267.08,393.75-268.86,393.75z M-268.86,393.75
	c-1.77,0-3.2,1.44-3.2,3.21c0,1.77,1.43,3.21,3.2,3.21c1.78,0,3.21-1.44,3.21-3.21C-265.65,395.19-267.08,393.75-268.86,393.75z
	 M-268.86,393.75c-1.77,0-3.2,1.44-3.2,3.21c0,1.77,1.43,3.21,3.2,3.21c1.78,0,3.21-1.44,3.21-3.21
	C-265.65,395.19-267.08,393.75-268.86,393.75z M-268.86,393.75c-1.77,0-3.2,1.44-3.2,3.21c0,1.77,1.43,3.21,3.2,3.21
	c1.78,0,3.21-1.44,3.21-3.21C-265.65,395.19-267.08,393.75-268.86,393.75z"/>
<path style="fill:#006CB7;" d="M-260.26,401.91c-1.05,0.24-2.17,0.43-3.36,0.57c0.38-0.6,0.75-1.21,1.11-1.83s0.71-1.26,1.04-1.9
	C-260.99,399.84-260.59,400.9-260.26,401.91z"/>
<path style="fill:#006CB7;" d="M-274.07,402.51c-1.17-0.13-2.28-0.31-3.31-0.53c0.32-1.03,0.71-2.09,1.17-3.18
	c0.32,0.63,0.66,1.25,1.02,1.86C-274.83,401.29-274.45,401.91-274.07,402.51z"/>
<path style="fill:#006CB7;" d="M-266.69,404.27c-0.7,0.95-1.4,1.82-2.11,2.59c-0.72-0.78-1.45-1.65-2.16-2.58
	c0.69,0.02,1.39,0.04,2.1,0.04C-268.12,404.32-267.4,404.3-266.69,404.27z"/>
<path style="fill:#006CB7;" d="M-260.33,392.1c-0.31,0.99-0.7,2.03-1.15,3.1c-0.34-0.63-0.68-1.26-1.04-1.87
	c-0.35-0.61-0.71-1.21-1.09-1.8C-262.46,391.67-261.37,391.87-260.33,392.1z"/>
<path style="fill:#006CB7;" d="M-266.72,389.72c-1.42-0.06-2.84-0.07-4.25,0c0.7-0.92,1.41-1.77,2.13-2.55
	C-268.13,387.94-267.42,388.79-266.72,389.72z"/>
<path style="fill:#006CB7;" d="M-274.1,391.53c-0.38,0.59-0.75,1.19-1.1,1.81c-0.35,0.61-0.69,1.23-1.01,1.85
	c-0.45-1.06-0.83-2.1-1.15-3.1C-276.33,391.86-275.24,391.67-274.1,391.53z"/>
<path style="fill:#0093D8;" d="M-252.43,396.96c0,1.39-2.19,3.19-5.74,4.37c-0.2,0.07-0.4,0.13-0.61,0.19
	c-0.45-1.44-1.06-2.97-1.82-4.55c0.72-1.54,1.31-3.06,1.75-4.49c0.37,0.11,0.73,0.22,1.07,0.34
	C-254.45,393.97-252.43,395.66-252.43,396.96z"/>
<path style="fill:#0093D8;" d="M-269.91,386.07c-1.05,1.12-2.08,2.4-3.07,3.79c-1.69,0.16-3.3,0.41-4.79,0.75
	c-0.09-0.37-0.17-0.74-0.25-1.11c-0.67-3.45-0.22-6.06,0.9-6.71c1.21-0.69,3.86,0.3,6.67,2.79
	C-270.27,385.74-270.09,385.9-269.91,386.07z"/>
<path style="fill:#0093D8;" d="M-269.86,407.97c-0.23,0.21-0.46,0.42-0.69,0.63c-1.39,1.22-2.79,2.08-4.02,2.52
	c-1.11,0.39-1.99,0.4-2.52,0.09c-1.13-0.65-1.61-3.18-0.96-6.56c0.07-0.4,0.16-0.8,0.26-1.19c1.47,0.32,3.1,0.56,4.84,0.7
	C-271.95,405.56-270.91,406.84-269.86,407.97z"/>
<path style="fill:#0093D8;" d="M-259.48,409c-0.21,1.15-0.64,1.92-1.17,2.23c-1.13,0.66-3.56-0.2-6.17-2.44
	c-0.31-0.27-0.61-0.54-0.9-0.83c1.01-1.11,2.02-2.39,3.01-3.82c1.74-0.16,3.38-0.41,4.87-0.75c0.07,0.29,0.13,0.58,0.19,0.87
	C-259.29,406.07-259.24,407.72-259.48,409z"/>
<path style="fill:#0093D8;" d="M-259.76,389.91c-0.05,0.23-0.1,0.47-0.16,0.71c-1.49-0.34-3.11-0.6-4.81-0.76
	c-0.98-1.4-2.01-2.68-3.03-3.79c0.27-0.26,0.54-0.51,0.82-0.76c2.66-2.3,5.13-3.22,6.26-2.56
	C-259.47,383.44-259,386.24-259.76,389.91z"/>
<path style="fill:#0093D8;" d="M-277.09,397c-0.73,1.57-1.32,3.12-1.78,4.6c-0.3-0.08-0.59-0.18-0.88-0.28
	c-1.76-0.59-3.2-1.37-4.19-2.22c-0.9-0.77-1.35-1.52-1.35-2.14c0-1.31,1.95-2.97,5.21-4.11c0.39-0.14,0.81-0.27,1.23-0.39
	C-278.4,393.92-277.81,395.45-277.09,397z"/>
<circle style="fill:#17568B;" cx="-268.823" cy="397.032" r="6.555"/>
</svg>
